<svg id="visual" viewBox="0 0 900 300" width="900" height="300" xmlns="http://www.w3.org/2000/svg" xmlns:xlink="http://www.w3.org/1999/xlink" version="1.1"><path d="M0 110L21.5 108.5C43 107 86 104 128.8 105.8C171.7 107.7 214.3 114.3 257.2 115.8C300 117.3 343 113.7 385.8 114C428.7 114.3 471.3 118.7 514.2 114.2C557 109.7 600 96.3 642.8 90.5C685.7 84.7 728.3 86.3 771.2 86.7C814 87 857 86 878.5 85.5L900 85L900 0L878.5 0C857 0 814 0 771.2 0C728.3 0 685.7 0 642.8 0C600 0 557 0 514.2 0C471.3 0 428.7 0 385.8 0C343 0 300 0 257.2 0C214.3 0 171.7 0 128.8 0C86 0 43 0 21.5 0L0 0Z" fill="#79de00"></path><path d="M0 93L21.5 89.3C43 85.7 86 78.3 128.8 73.3C171.7 68.3 214.3 65.7 257.2 64.8C300 64 343 65 385.8 64.8C428.7 64.7 471.3 63.3 514.2 64.2C557 65 600 68 642.8 71.2C685.7 74.3 728.3 77.7 771.2 80C814 82.3 857 83.7 878.5 84.3L900 85L900 0L878.5 0C857 0 814 0 771.2 0C728.3 0 685.7 0 642.8 0C600 0 557 0 514.2 0C471.3 0 428.7 0 385.8 0C343 0 300 0 257.2 0C214.3 0 171.7 0 128.8 0C86 0 43 0 21.5 0L0 0Z" fill="#68d60d"></path><path d="M0 55L21.5 58.8C43 62.7 86 70.3 128.8 72.2C171.7 74 214.3 70 257.2 67.5C300 65 343 64 385.8 66.2C428.7 68.3 471.3 73.7 514.2 73C557 72.3 600 65.7 642.8 64.5C685.7 63.3 728.3 67.7 771.2 65.3C814 63 857 54 878.5 49.5L900 45L900 0L878.5 0C857 0 814 0 771.2 0C728.3 0 685.7 0 642.8 0C600 0 557 0 514.2 0C471.3 0 428.7 0 385.8 0C343 0 300 0 257.2 0C214.3 0 171.7 0 128.8 0C86 0 43 0 21.5 0L0 0Z" fill="#57ce15"></path><path d="M0 48L21.5 45.8C43 43.7 86 39.3 128.8 37C171.7 34.7 214.3 34.3 257.2 34.7C300 35 343 36 385.8 37.3C428.7 38.7 471.3 40.3 514.2 43.8C557 47.3 600 52.7 642.8 50.8C685.7 49 728.3 40 771.2 36.2C814 32.3 857 33.7 878.5 34.3L900 35L900 0L878.5 0C857 0 814 0 771.2 0C728.3 0 685.7 0 642.8 0C600 0 557 0 514.2 0C471.3 0 428.7 0 385.8 0C343 0 300 0 257.2 0C214.3 0 171.7 0 128.8 0C86 0 43 0 21.5 0L0 0Z" fill="#44c61b"></path><path d="M0 12L21.5 13.8C43 15.7 86 19.3 128.8 21.8C171.7 24.3 214.3 25.7 257.2 27.5C300 29.3 343 31.7 385.8 32.2C428.7 32.7 471.3 31.3 514.2 29.3C557 27.3 600 24.7 642.8 24.7C685.7 24.7 728.3 27.3 771.2 29C814 30.7 857 31.3 878.5 31.7L900 32L900 0L878.5 0C857 0 814 0 771.2 0C728.3 0 685.7 0 642.8 0C600 0 557 0 514.2 0C471.3 0 428.7 0 385.8 0C343 0 300 0 257.2 0C214.3 0 171.7 0 128.8 0C86 0 43 0 21.5 0L0 0Z" fill="#2ebd1f"></path></svg>