<svg id="visual" viewBox="0 0 900 900" width="900" height="900" xmlns="http://www.w3.org/2000/svg" xmlns:xlink="http://www.w3.org/1999/xlink" version="1.1"><rect x="0" y="0" width="900" height="900" fill="#70c553"></rect><path d="M0 421L129 421L129 480L257 480L257 523L386 523L386 568L514 568L514 558L643 558L643 564L771 564L771 524L900 524L900 470L900 901L900 901L771 901L771 901L643 901L643 901L514 901L514 901L386 901L386 901L257 901L257 901L129 901L129 901L0 901Z" fill="#246b0c"></path><path d="M0 601L129 601L129 595L257 595L257 546L386 546L386 682L514 682L514 549L643 549L643 595L771 595L771 646L900 646L900 656L900 901L900 901L771 901L771 901L643 901L643 901L514 901L514 901L386 901L386 901L257 901L257 901L129 901L129 901L0 901Z" fill="#2a970e"></path><path d="M0 778L129 778L129 815L257 815L257 757L386 757L386 751L514 751L514 813L643 813L643 809L771 809L771 742L900 742L900 743L900 901L900 901L771 901L771 901L643 901L643 901L514 901L514 901L386 901L386 901L257 901L257 901L129 901L129 901L0 901Z" fill="#28c512"></path></svg>